<?xml version="1.0" standalone="no"?>
<!DOCTYPE svg PUBLIC "-//W3C//DTD SVG 20010904//EN"
 "http://www.w3.org/TR/2001/REC-SVG-20010904/DTD/svg10.dtd">
<svg version="1.0" xmlns="http://www.w3.org/2000/svg"
 width="64.000000pt" height="64.000000pt" viewBox="0 0 64.000000 64.000000"
 preserveAspectRatio="xMidYMid meet">

<g transform="translate(0.000000,64.000000) scale(0.100000,-0.100000)"
fill="red" stroke="none">
<path fill="blue" d="M170 615 c-71 -42 -100 -68 -106 -93 -12 -54 -15 -60 -34 -65 -28 -7
-37 -37 -17 -52 12 -9 20 -41 28 -116 10 -94 21 -131 33 -118 2 2 -1 52 -8
112 l-12 107 23 0 c13 0 23 -5 23 -10 0 -17 30 -281 35 -312 4 -24 1 -28 -20
-28 -20 0 -25 5 -25 24 0 40 -12 86 -23 86 -13 0 -1 -109 15 -127 13 -16 543
-19 553 -3 4 6 -19 10 -62 10 l-68 0 37 25 c73 50 115 167 89 248 -18 53 -68
117 -91 117 -12 0 -23 7 -26 15 -4 8 -24 18 -45 21 -41 7 -59 26 -59 63 0 11
-12 28 -26 38 -14 10 -37 28 -51 41 -14 12 -31 22 -37 23 -55 5 -113 2 -126
-6z m160 -38 c17 -15 35 -27 40 -27 11 0 31 -70 24 -82 -3 -4 -77 -8 -164 -8
l-159 0 6 33 c6 33 29 67 46 67 5 0 21 10 36 23 40 33 128 30 171 -6z m-48
-149 c-18 -18 -253 -18 -259 0 -4 9 27 12 133 12 110 0 136 -3 126 -12z m172
-50 c14 -23 -3 -52 -33 -56 -42 -6 -67 38 -39 66 17 17 58 11 72 -10z m-263
-98 c4 -58 12 -123 18 -145 6 -22 11 -55 11 -72 0 -30 -3 -33 -30 -33 -16 0
-30 5 -30 10 0 17 -30 282 -36 318 -5 33 -4 33 28 30 l33 -3 6 -105z m137 28
c34 -34 -6 -90 -48 -68 -35 19 -20 80 20 80 9 0 21 -5 28 -12z m230 0 c7 -7
12 -27 12 -45 0 -27 -4 -33 -21 -33 -33 0 -59 19 -59 43 0 27 17 47 40 47 9 0
21 -5 28 -12z m-128 -68 c0 -5 -7 -10 -15 -10 -8 0 -15 5 -15 10 0 6 7 10 15
10 8 0 15 -4 15 -10z m-44 -85 c9 -22 -15 -55 -39 -55 -47 0 -63 48 -25 74 23
16 54 7 64 -19z m138 3 c15 -25 -3 -52 -37 -56 -34 -4 -58 38 -37 63 17 20 59
16 74 -7z m-249 -116 c-7 -8 -35 7 -35 18 0 6 7 6 20 -2 10 -7 17 -14 15 -16z"/>
<path d="M237 574 c-13 -14 -7 -22 13 -17 14 4 20 0 20 -11 0 -9 5 -16 11 -16
6 0 9 10 7 23 -3 22 -36 36 -51 21z"/>
<path d="M127 544 c-11 -11 -8 -54 3 -54 6 0 10 9 10 21 0 16 4 19 21 14 15
-5 20 -3 17 6 -5 15 -40 24 -51 13z"/>
<path d="M201 501 c-14 -25 4 -39 17 -14 9 15 12 15 27 3 15 -13 17 -12 14 5
-6 28 -45 32 -58 6z"/>
</g>
</svg>
